<svg version="1.1" xmlns="http://www.w3.org/2000/svg" xmlns:xlink="http://www.w3.org/1999/xlink" width="246.4092" height="106.76836" viewBox="0,0,246.4092,106.76836"><g transform="translate(-114.90208,-70.3709)"><g data-paper-data="{&quot;isPaintingLayer&quot;:true}" fill-rule="nonzero" stroke="#000000" stroke-width="2" stroke-linecap="butt" stroke-linejoin="miter" stroke-miterlimit="10" stroke-dasharray="" stroke-dashoffset="0" style="mix-blend-mode: normal"><path d="M268.47082,95.39996v-5.67142h91.84047v5.67142z" fill="#000000"/><path d="M177.05662,95.46034v-5.67142h91.84047v5.67142z" fill="#000000"/><path d="M115.90209,95.51036v-5.67142h91.84047v5.67142z" fill="#000000"/><g fill="#000000"><path d="M139.26958,176.13927v-103.57989h43.82733v103.57989z"/><path d="M192.83499,175.6115v-103.57989h43.82732v103.57989z"/><path d="M245.61072,175.47857v-103.57989h43.82732v103.57989z"/><path d="M297.99161,174.9508v-103.57989h43.82732v103.57989z"/></g><path d="M178.9703,156.83567c0,8.6062 -7.36431,15.58292 -16.44863,15.58292c-9.08433,0 -16.44863,-6.97671 -16.44863,-15.58292c0,-8.6062 7.36431,-15.58291 16.44863,-15.58291c9.08433,0 16.44863,6.97671 16.44863,15.58291z" fill="#ff0000"/><path d="M178.19885,121.43552c0,8.60621 -7.36431,15.58292 -16.44863,15.58292c-9.08433,0 -16.44863,-6.97671 -16.44863,-15.58291c0,-8.60621 7.36431,-15.58291 16.44863,-15.58291c9.08433,0 16.44863,6.97671 16.44863,15.58292z" fill="#ff0000"/><path d="M231.10189,122.97265c0,8.6062 -7.36431,15.58292 -16.44863,15.58292c-9.08433,0 -16.44864,-6.97671 -16.44864,-15.58292c0,-8.60621 7.36431,-15.58291 16.44864,-15.58291c9.08433,0 16.44863,6.97671 16.44863,15.58292z" fill="#ff0000"/><path d="M232.06187,156.8299c0,8.6062 -7.36431,15.58292 -16.44863,15.58292c-9.08433,0 -16.44863,-6.97671 -16.44863,-15.58292c0,-8.6062 7.36431,-15.58291 16.44863,-15.58291c9.08433,0 16.44863,6.97671 16.44863,15.58291z" fill="#ff0000"/><path d="M284.58207,123.93263c0,8.60621 -7.3643,15.58292 -16.44863,15.58292c-9.08433,0 -16.44864,-6.97671 -16.44864,-15.58291c0,-8.60621 7.36431,-15.58291 16.44864,-15.58291c9.08433,0 16.44863,6.97671 16.44863,15.58292z" fill="#ff0000"/><path d="M284.96491,156.63559c0,8.6062 -7.3643,15.58291 -16.44863,15.58291c-9.08433,0 -16.44863,-6.97671 -16.44863,-15.58291c0,-8.6062 7.3643,-15.58292 16.44863,-15.58292c9.08433,0 16.44863,6.97671 16.44863,15.58292z" fill="#ff0000"/><path d="M338.44509,157.01843c0,8.6062 -7.3643,15.58291 -16.44863,15.58291c-9.08433,0 -16.44864,-6.97671 -16.44864,-15.58291c0,-8.6062 7.36431,-15.58292 16.44864,-15.58292c9.08433,0 16.44863,6.97671 16.44863,15.58292z" fill="#ff0000"/><path d="M338.82793,123.34971c0,8.6062 -7.3643,15.58292 -16.44863,15.58292c-9.08433,0 -16.44864,-6.97671 -16.44864,-15.58292c0,-8.6062 7.36431,-15.58291 16.44864,-15.58291c9.08433,0 16.44863,6.97671 16.44863,15.58291z" fill="#ff0000"/></g></g></svg>